# xmcd
#
# Track frame offsets: 
#        150
#        26834
#        48075
#        76241
#        91921
#        108799
#        127030
#        152950
#        199134
#        218357
#
# Disc length: 3176 seconds
#
# Revision: 0
# Processed by: cddbd v1.5.2PL0 Copyright (c) Steve Scherf et al.
# Submitted via: ExactAudioCopy v1.0b3
#
DISCID=780c660a
DTITLE=Various Artist - Mua Thu Yeu Duong
DYEAR=2011
DGENRE=
TTITLE0=Toc Tien, Mai Tien Dung - LK Mua thu yeu duong, Be yeu
TTITLE1=Ky Phuong Uyen - Hanh phuc trong tam tay
TTITLE2=Quynh Vi, Nhu Loan - LK Tinh dau, Yeu nhau bon mua
TTITLE3=Luu Bich - Mot doi tan vo
TTITLE4=Trinh Lam - Kiep phieu bong
TTITLE5=Thanh Ha - Mua le
TTITLE6=Don Ho - Thanh pho buon
TTITLE7=Minh Tuyet, Bang Kieu - LK Em la tat ca, Duyen kiep, Co ua
TTITLE8=Luong Tung Quang - Tinh dep nhu mo
TTITLE9=hop ca - Doan nguoi lu thu
EXTD=
EXTT0=
EXTT1=
EXTT2=
EXTT3=
EXTT4=
EXTT5=
EXTT6=
EXTT7=
EXTT8=
EXTT9=
PLAYORDER=
